<svg xmlns="http://www.w3.org/2000/svg" width="45.571" height="45.571" viewBox="0 0 45.571 45.571" fill="none">
  <path d="M 39.302 20 L 25.556 20 L 25.556 6.269 C 25.554 4.607 24.893 3.013 23.718 1.838 C 22.542 0.663 20.949 0.002 19.287 0 L 6.266 0 C 4.604 0.003 3.012 0.665 1.837 1.84 C 0.663 3.015 0.002 4.607 0 6.269 L 0 13.258 L 6.735 13.258 L 6.735 6.738 L 18.793 6.738 L 18.793 38.805 L 13.503 38.805 L 13.503 45.571 L 25.556 45.571 L 25.556 26.75 L 38.82 26.75 L 38.82 38.805 L 32.308 38.805 L 32.308 45.571 L 39.302 45.571 C 40.964 45.569 42.557 44.908 43.733 43.733 C 44.908 42.558 45.569 40.965 45.571 39.303 L 45.571 26.268 C 45.569 24.606 44.908 23.013 43.733 21.838 C 42.557 20.663 40.964 20.002 39.302 20 Z" fill="currentColor" fill-rule="nonzero"></path>
</svg>