<svg xmlns="http://www.w3.org/2000/svg" width="45.571" height="45.571" viewBox="0 0 45.571 45.571" fill="none">
  <path d="M 38.821 32.311 L 38.821 38.808 L 26.752 38.808 L 26.752 6.764 L 32.058 6.764 L 32.058 0 L 20.017 0 L 20.017 18.799 L 6.755 18.799 L 6.755 6.764 L 13.263 6.764 L 13.263 0 L 6.269 0 C 4.607 0.002 3.014 0.663 1.838 1.838 C 0.663 3.012 0.002 4.605 0 6.266 L 0 19.312 C 0.002 20.974 0.663 22.566 1.838 23.741 C 3.014 24.916 4.607 25.577 6.269 25.579 L 20.017 25.579 L 20.017 39.317 C 20.023 40.976 20.685 42.565 21.859 43.737 C 23.033 44.909 24.623 45.568 26.282 45.571 L 39.302 45.571 C 40.964 45.569 42.558 44.908 43.733 43.734 C 44.908 42.559 45.569 40.966 45.571 39.305 L 45.571 32.311 L 38.821 32.311 Z" fill="currentColor" fill-rule="nonzero"></path>
</svg>